<?xml version="1.0" encoding="UTF-8" standalone="no"?>
<svg
   version="1.1"
   viewBox="0 0 69.767 183.333"
   xml:space="preserve"
   id="svg3"
   sodipodi:docname="logo2.svg"
   inkscape:version="1.3-dev (182b679, 2022-06-24)"
   xmlns:inkscape="http://www.inkscape.org/namespaces/inkscape"
   xmlns:sodipodi="http://sodipodi.sourceforge.net/DTD/sodipodi-0.dtd"
   xmlns="http://www.w3.org/2000/svg"
   xmlns:svg="http://www.w3.org/2000/svg"><sodipodi:namedview
     id="namedview1"
     pagecolor="#ffffff"
     bordercolor="#666666"
     borderopacity="1.0"
     inkscape:showpageshadow="2"
     inkscape:pageopacity="0.0"
     inkscape:pagecheckerboard="0"
     inkscape:deskcolor="#d1d1d1"
     showgrid="false"
     inkscape:zoom="1.2872751"
     inkscape:cx="8.1567645"
     inkscape:cy="92.054914"
     inkscape:window-width="1280"
     inkscape:window-height="699"
     inkscape:window-x="0"
     inkscape:window-y="25"
     inkscape:window-maximized="1"
     inkscape:current-layer="svg3" /><defs
     id="defs1" /><g
     id="g4"
     transform="matrix(1.7653562,0,0,1.7653562,-796.40901,-590.47636)"><g
       transform="translate(469.838,385.335)"
       id="vectorized-icon-ai-7d9ace4f-94f8-8f03-7d65-baa8c0ab71f8"><g
         id="g3"><g
           transform="matrix(0.0837,0,0,0.0837,0.006,10.279)"
           id="g1"><path
             style="opacity:1;fill:#9333e7;fill-rule:nonzero;stroke:none;stroke-width:1;stroke-linecap:butt;stroke-linejoin:miter;stroke-miterlimit:4;stroke-dasharray:none;stroke-dashoffset:0"
             transform="translate(-1025.037,-1156.837)"
             d="m 984.381,702.143 c 6.757,10.698 10.692,24.445 15.179,36.279 6.874,18.128 38.894,109.397 47.984,116.515 3.087,-0.153 4.727,-0.83 6.792,-3.219 7.278,-8.456 10.912,-23.744 14.758,-34.113 l 27.208,-73.335 c 4.049,-11.064 7.237,-22.772 11.924,-33.55 1.407,-3.246 2.834,-5.886 5.425,-8.314 5.486,-1.143 11.104,-0.166 16.671,-0.073 27.239,0.459 53.81,2.166 78.417,15.135 22.917,12.081 42.989,33.91 50.611,58.925 2.753,9.057 3.877,18.194 4.008,27.642 0.334,25.649 -3.806,52.318 -5.587,77.972 -1.782,25.7 -1.205,52.696 -5.577,78.071 -1.468,8.53 -4.019,16.746 -8.118,24.391 -11.56,21.584 -29.537,29.823 -51.957,36.504 3.958,36.298 6.063,72.799 9.11,109.178 6.964,79.429 13.442,158.908 19.435,238.418 l 11.58,139.848 c 2.055,24.86 5.375,50.368 5.598,75.289 0.081,8.887 -1.275,17.076 -5.223,25.073 -6.792,13.786 -18.817,23.737 -33.312,28.514 a 58.638,58.638 0 0 1 -45.793,-4.272 c -10.406,-5.679 -19.678,-14.627 -24.293,-25.639 -5.375,-12.835 -6.782,-27.876 -9.201,-41.481 l -8.675,-47.696 -37.351,-208.952 -10.274,-59.022 c -2.095,-12.096 -3.695,-24.668 -7.197,-36.45 l -0.445,-1.468 c -1.296,-0.455 -3.097,-1.265 -4.464,-1.316 -4.11,-0.152 -6.002,2.601 -7.409,6.053 -4.312,10.517 -4.585,23.929 -6.286,35.144 -1.954,12.794 -4.332,25.579 -6.448,38.353 l -35.136,204.053 -11.111,64.326 c -2.545,14.616 -4.549,29.688 -8.895,43.9 -2.655,8.675 -6.316,14.809 -12.797,21.186 -10.943,10.76 -25.15,16.246 -40.424,16.206 -16.132,-0.051 -30.423,-6.721 -41.602,-18.169 -9.03,-9.252 -13.497,-20.295 -14.604,-33.049 -1.477,-17.005 0.971,-34.992 2.184,-51.988 l 6.188,-85.543 L 894,1186.045 c 3.074,-44.072 8.239,-88.68 8.867,-132.833 17.763,-5.962 39.404,-7.551 57.977,-10.598 l 110.884,-18.058 c 12.096,-1.893 18.402,-3.361 25.852,-13.566 -13.624,-4.118 -30.599,-10.153 -44.882,-10.483 -15.446,-0.357 -31.389,2.283 -46.777,3.727 l -82.528,7.476 c -18.741,1.751 -39.693,4.565 -58.343,1.68 -10.537,-1.625 -19.976,-5.7 -28.309,-12.374 a 65.663,65.663 0 0 1 -24.6,-45.519 c -0.862,-8.628 -0.258,-17.142 1.216,-25.666 3.978,-23.022 12.114,-46.602 18.252,-69.193 7.259,-26.718 13.141,-56.165 23.743,-81.711 a 118.834,118.834 0 0 1 17.899,-29.442 c 26.04,-31.76 59.44,-43.715 99.214,-47.581 3.965,-0.422 7.949,-0.004 11.918,0.239 m 133.309,173.774 -1.498,0.237 c -16.884,2.575 -35.256,1.241 -52.362,1.212 l -92.077,-0.202 c -13.15,-0.022 -27.572,-1.261 -40.566,0.672 -3.736,0.556 -7.351,1.462 -9.843,4.537 -3.789,4.672 -5.013,17.022 -4.165,22.917 0.323,2.247 1.153,4.523 2.992,5.985 4.165,3.312 12.101,2.209 17.128,2.126 l 135.692,0.079 c 22.633,0.02 48.89,2.301 71.037,-1.434 11.57,-18.064 21.773,-36.813 32.219,-55.533 5.183,-9.277 11.802,-18.676 15.305,-28.723 0.81,-2.338 1.073,-4.568 0.577,-7.013 -0.648,-3.196 -2.379,-5.854 -5.172,-7.583 -3.846,-2.369 -8.047,-2.649 -12.44,-2.316 -23.2,9.601 -40.377,45.752 -56.826,65.04"
             stroke-linecap="round"
             id="path1" /></g><g
           transform="matrix(0.0837,0,0,0.0837,0.772,-39.773)"
           id="g2"><path
             style="opacity:1;fill:#9333e7;fill-rule:nonzero;stroke:none;stroke-width:1;stroke-linecap:butt;stroke-linejoin:miter;stroke-miterlimit:4;stroke-dasharray:none;stroke-dashoffset:0"
             transform="translate(-1034.227,-558.764)"
             d="m 1033.688,454.12 c 61.513,-7.271 117.296,36.664 124.634,98.171 7.338,61.507 -36.531,117.334 -98.033,124.743 -61.598,7.421 -117.532,-36.537 -124.883,-98.141 -7.351,-61.605 36.669,-117.49 98.282,-124.773"
             stroke-linecap="round"
             id="path2" /></g></g></g></g></svg>
